[center][img]http://pic.phyrefile.com/s/sh/shahaz/2011/05/12/wbz3d.png[/img]

[img]http://pic.phyrefile.com/s/sh/shahaz/2011/05/19/priest.png[/img]

[color="#FF0000"][size="4"]INFO.................[/size][/color]
Format                           : AVI
Format/Info                      : Audio Video Interleave
File size                        : 1.46 GiB
Duration                         : 1h 20mn
Overall bit rate                 : 2 605 Kbps


Video
ID                               : 0
Format                           : MPEG-4 Visual
Format profile                   : Advanced Simple@L5
Format settings, BVOP            : 2
Format settings, QPel            : Yes
Format settings, GMC             : No warppoints
Format settings, Matrix          : Default (H.263)
Codec ID                         : XVID
Codec ID/Hint                    : XviD
Duration                         : 1h 20mn
Bit rate                         : 1 698 Kbps
Width                            : 640 pixels
Height                           : 304 pixels
Display aspect ratio             : 2.2:1
Frame rate                       : 25.000 fps
Color space                      : YUV
Chroma subsampling               : 4:2:0
Bit depth                        : 8 bits
Scan type                        : Progressive
Compression mode                 : Lossy
Bits/(Pixel*Frame)               : 0.349
Stream size                      : 973 MiB (65%)
Writing library                  : XviD 1.2.1 (UTC 2008-12-04)


Audio #1
ID                               : 1
Format                           : AC-3
Format/Info                      : Audio Coding 3
Mode extension                   : CM (complete main)
Codec ID                         : 2000
Duration                         : 1h 20mn
Bit rate mode                    : Constant
Bit rate                         : 448 Kbps
Channel(s)                       : 2 channels
Channel positions                : Front: L R
Sampling rate                    : 48.0 KHz
Bit depth                        : 16 bits
Compression mode                 : Lossy
Stream size                      : 257 MiB (17%)
Alignment                        : Aligned on interleaves
Interleave, duration             : 64 ms (1.60 video frames)
Interleave, preload duration     : 192 ms
Title                            : English-Striker[WBZ]

Audio #2
ID                               : 2
Format                           : AC-3
Format/Info                      : Audio Coding 3
Mode extension                   : CM (complete main)
Codec ID                         : 2000
Duration                         : 1h 20mn
Bit rate mode                    : Constant
Bit rate                         : 448 Kbps
Channel(s)                       : 2 channels
Channel positions                : Front: L R
Sampling rate                    : 48.0 KHz
Bit depth                        : 16 bits
Compression mode                 : Lossy
Stream size                      : 257 MiB (17%)
Alignment                        : Aligned on interleaves
Interleave, duration             : 64 ms (1.60 video frames)
Interleave, preload duration     : 192 ms
Title                            : Hindi-Striker[WBZ]





[color="#FF0000"][size="4"]SCREENS.................[/size][/color]



[img]http://pic.phyrefile.com/s/sh/shahaz/2011/05/19/1_003.jpg[/img]
[img]http://pic.phyrefile.com/s/sh/shahaz/2011/05/19/2_003.jpg[/img]
[img]http://pic.phyrefile.com/s/sh/shahaz/2011/05/19/3_003.jpg[/img]
[img]http://pic.phyrefile.com/s/sh/shahaz/2011/05/19/4_003.jpg[/img]
[img]http://pic.phyrefile.com/s/sh/shahaz/2011/05/19/5_003.jpg[/img]
[img]http://pic.phyrefile.com/s/sh/shahaz/2011/05/19/6_003.jpg[/img]
[img]http://pic.phyrefile.com/s/sh/shahaz/2011/05/19/7_003.jpg[/img]
[img]http://pic.phyrefile.com/s/sh/shahaz/2011/05/19/8_003.jpg[/img]
[img]http://pic.phyrefile.com/s/sh/shahaz/2011/05/19/9_003.jpg[/img]
[img]http://pic.phyrefile.com/s/sh/shahaz/2011/05/19/10_003.jpg[/img]
[img]http://pic.phyrefile.com/s/sh/shahaz/2011/05/19/11_003.jpg[/img]
[img]http://pic.phyrefile.com/s/sh/shahaz/2011/05/19/12_003.jpg[/img]
[img]http://pic.phyrefile.com/s/sh/shahaz/2011/05/19/13_003.jpg[/img]
[img]http://pic.phyrefile.com/s/sh/shahaz/2011/05/19/14_003.jpg[/img]
[img]http://pic.phyrefile.com/s/sh/shahaz/2011/05/19/15_003.jpg[/img]



[color="#FF0000"][size="4"]SOURCE:

VIDEO:Priest READNFO CAM XViD - IMAGiNE

AUDIO:Priest 2011 SCAM Rip Dual Audio ( Eng Hindi ) x264 NiCkkkDoN...THANKS!!!!

AUDIO HAS BEEN CLEANED....

AND ADDED SOME FILTERS TO IMPROVE QUALITY.....
[/size][/color][/center]